<?xml version="1.0" encoding="UTF-8"?><svg id="Lag_1" xmlns="http://www.w3.org/2000/svg" viewBox="0 0 322.91 273.24"><defs><style>.cls-1{fill:none;stroke:#00807f;stroke-linecap:round;stroke-miterlimit:10;stroke-width:32px;}</style></defs><g id="b"><g id="c"><path class="cls-1" d="M101.93,37.46c-9.1-9.88-22.05-17.58-35.21-20.39-11.06-2.36-23.22-.93-32.57,5.44-9.2,6.27-14.95,16.8-17.02,27.74-6.67,35.16,17.62,73.55,34.83,102.42,13.91,23.33,29.85,45.43,47.83,65.8,13.66,15.47,28.46,32.64,49.54,37.34,50.59,11.28,87.48-46.84,110.32-82.38,16.69-25.98,33.57-52.38,42.55-81.92,3.92-12.91,6.28-26.68,3.49-39.88-4.91-23.33-26.19-37-49.46-32.04-13.15,2.8-26.1,10.5-35.21,20.39"/></g></g></svg>