<?xml version="1.0" encoding="UTF-8"?><svg xmlns="http://www.w3.org/2000/svg" viewBox="0 0 875.07 95.79"><defs><style>.d{stroke-linejoin:round;stroke-width:5px;}.d,.e{fill:none;stroke:#000;stroke-linecap:round;}.e{stroke-miterlimit:10;stroke-width:8px;}</style></defs><g id="a"/><g id="b"><g id="c"><g><g><path d="M10.21,6.19V42.87H30.9c1.65,0,2.92,.4,3.8,1.2,.88,.8,1.32,1.81,1.32,3.02s-.44,2.24-1.31,3.01c-.87,.77-2.14,1.15-3.82,1.15H6.26c-2.22,0-3.82-.49-4.8-1.48-.97-.99-1.46-2.58-1.46-4.78V6.19C0,4.12,.46,2.58,1.39,1.55S3.54,0,5.05,0s2.78,.51,3.73,1.53c.95,1.02,1.43,2.57,1.43,4.66Z"/><path d="M93.12,19.15v1.13c1.65-2.18,3.46-3.78,5.41-4.8,1.96-1.02,4.21-1.53,6.75-1.53s4.69,.54,6.63,1.62c1.95,1.08,3.4,2.6,4.37,4.57,.62,1.15,1.02,2.38,1.2,3.71,.18,1.33,.27,3.02,.27,5.09v17.46c0,1.88-.43,3.3-1.29,4.26s-1.98,1.44-3.35,1.44-2.53-.49-3.4-1.48c-.87-.99-1.31-2.39-1.31-4.23v-15.64c0-3.09-.43-5.46-1.29-7.1-.86-1.64-2.57-2.46-5.14-2.46-1.67,0-3.2,.5-4.57,1.5-1.38,1-2.38,2.37-3.02,4.11-.46,1.4-.69,4.01-.69,7.84v11.76c0,1.9-.44,3.33-1.32,4.28-.88,.95-2.02,1.43-3.42,1.43s-2.46-.49-3.33-1.48c-.87-.99-1.31-2.39-1.31-4.23V19.29c0-1.79,.39-3.12,1.17-4,.78-.88,1.84-1.32,3.2-1.32,.83,0,1.57,.2,2.23,.58,.66,.39,1.2,.97,1.6,1.75,.4,.78,.6,1.73,.6,2.85Z"/><path d="M152.83,46.75v-.93c-1.26,1.44-2.5,2.62-3.73,3.52s-2.56,1.59-3.99,2.06c-1.43,.47-3,.7-4.69,.7-2.25,0-4.33-.48-6.24-1.43-1.91-.95-3.57-2.31-4.97-4.07-1.4-1.76-2.46-3.84-3.18-6.22-.72-2.38-1.08-4.96-1.08-7.73,0-5.87,1.43-10.44,4.3-13.72,2.86-3.28,6.63-4.92,11.31-4.92,2.7,0,4.98,.46,6.84,1.39,1.86,.93,3.67,2.35,5.43,4.28V5.84c0-1.93,.38-3.38,1.15-4.37,.77-.99,1.86-1.48,3.28-1.48s2.51,.45,3.28,1.36c.77,.91,1.15,2.24,1.15,4V46.75c0,1.79-.41,3.13-1.24,4.02-.83,.89-1.89,1.34-3.2,1.34s-2.34-.46-3.18-1.39c-.84-.93-1.25-2.25-1.25-3.97Zm-18.46-13.78c0,2.54,.4,4.71,1.19,6.5s1.87,3.13,3.25,4.04c1.38,.91,2.88,1.36,4.5,1.36s3.16-.43,4.52-1.29c1.36-.86,2.45-2.18,3.27-3.95,.81-1.78,1.22-3.99,1.22-6.65,0-2.5-.41-4.65-1.22-6.45-.81-1.8-1.91-3.17-3.3-4.12-1.39-.95-2.9-1.43-4.55-1.43s-3.25,.49-4.61,1.46c-1.35,.97-2.4,2.37-3.15,4.19-.74,1.82-1.12,3.94-1.12,6.34Z"/><path d="M179.79,5.36v14.33c1.76-1.83,3.56-3.24,5.4-4.21,1.83-.97,4.1-1.46,6.81-1.46,3.12,0,5.85,.74,8.2,2.22s4.17,3.62,5.47,6.43c1.29,2.81,1.94,6.14,1.94,9.99,0,2.84-.36,5.45-1.08,7.82s-1.77,4.43-3.15,6.17c-1.38,1.74-3.04,3.09-5,4.04s-4.12,1.43-6.48,1.43c-1.44,0-2.8-.17-4.07-.52-1.27-.34-2.35-.8-3.25-1.36-.89-.56-1.66-1.14-2.29-1.74-.63-.6-1.46-1.49-2.49-2.68v.93c0,1.77-.42,3.1-1.27,4-.85,.91-1.93,1.36-3.23,1.36s-2.39-.45-3.18-1.36c-.79-.9-1.19-2.24-1.19-4V5.78c0-1.9,.38-3.34,1.15-4.31,.77-.97,1.84-1.46,3.21-1.46,1.44,0,2.56,.46,3.33,1.39,.78,.93,1.17,2.25,1.17,3.97Zm.45,27.88c0,3.74,.85,6.61,2.56,8.61,1.71,2.01,3.95,3.01,6.72,3.01,2.36,0,4.39-1.03,6.1-3.08,1.71-2.05,2.56-4.99,2.56-8.82,0-2.48-.36-4.61-1.07-6.39-.71-1.79-1.72-3.17-3.02-4.14-1.31-.97-2.83-1.46-4.57-1.46s-3.38,.49-4.78,1.46c-1.4,.97-2.5,2.38-3.3,4.23-.8,1.84-1.2,4.04-1.2,6.58Z"/><path d="M222.86,53.28l.86-2.1-11.55-29.08c-.71-1.67-1.07-2.89-1.07-3.64,0-.8,.21-1.55,.62-2.23s.98-1.24,1.7-1.65c.72-.41,1.47-.62,2.25-.62,1.35,0,2.37,.43,3.06,1.29s1.29,2.09,1.82,3.7l7.94,23.1,7.53-21.48c.6-1.74,1.13-3.1,1.62-4.09,.48-.99,.99-1.65,1.53-1.99s1.3-.52,2.29-.52c.71,0,1.39,.19,2.05,.57s1.16,.89,1.51,1.53c.35,.64,.53,1.32,.53,2.03-.09,.44-.24,1.05-.45,1.86-.21,.8-.46,1.62-.76,2.44l-12.24,32.04c-1.05,2.82-2.09,5.03-3.09,6.63-1.01,1.6-2.34,2.84-4,3.7-1.66,.86-3.9,1.29-6.72,1.29s-4.81-.3-6.19-.89c-1.38-.6-2.06-1.68-2.06-3.27,0-1.08,.33-1.91,.98-2.49,.65-.58,1.62-.88,2.9-.88,.5,0,1,.07,1.48,.21,.6,.14,1.11,.21,1.55,.21,1.08,0,1.92-.16,2.54-.48,.62-.32,1.17-.88,1.67-1.67,.49-.79,1.06-1.95,1.7-3.49Z"/><path d="M276.59,19.8l7.6,21.31,8.18-22.24c.64-1.79,1.27-3.05,1.89-3.8,.62-.74,1.56-1.12,2.82-1.12,1.19,0,2.21,.4,3.04,1.2,.84,.8,1.25,1.73,1.25,2.78,0,.41-.07,.89-.22,1.44-.15,.55-.32,1.07-.52,1.55-.19,.48-.42,1.03-.67,1.65l-9.01,22.34c-.25,.64-.58,1.46-.98,2.44-.4,.99-.85,1.83-1.34,2.53-.49,.7-1.1,1.24-1.82,1.63-.72,.39-1.6,.58-2.63,.58-1.33,0-2.39-.3-3.18-.91-.79-.61-1.38-1.27-1.75-1.99-.38-.72-1.01-2.15-1.91-4.28l-8.94-22.1c-.21-.55-.42-1.1-.64-1.65-.22-.55-.4-1.11-.55-1.68-.15-.57-.22-1.07-.22-1.48,0-.64,.19-1.28,.58-1.91,.39-.63,.93-1.15,1.62-1.55,.69-.4,1.43-.6,2.23-.6,1.56,0,2.63,.45,3.21,1.34,.58,.89,1.23,2.4,1.94,4.5Z"/><path d="M309.04,52.11c-1.42,0-2.65-.46-3.68-1.38s-1.55-2.2-1.55-3.85c0-1.4,.49-2.6,1.48-3.61,.98-1.01,2.2-1.51,3.64-1.51s2.68,.5,3.7,1.5c1.02,1,1.53,2.21,1.53,3.63,0,1.63-.51,2.9-1.53,3.83-1.02,.93-2.22,1.39-3.59,1.39Z"/><path d="M360.12,43.66l-8.08-32.11V46.34c0,1.92-.43,3.37-1.29,4.33s-2,1.44-3.42,1.44-2.5-.48-3.37-1.43c-.87-.95-1.31-2.4-1.31-4.35V6.46c0-2.2,.57-3.68,1.72-4.45,1.15-.77,2.69-1.15,4.64-1.15h3.16c1.9,0,3.28,.17,4.14,.52s1.5,.96,1.91,1.86,.88,2.35,1.41,4.37l7.32,27.6,7.32-27.6c.53-2.02,1-3.47,1.41-4.37s1.05-1.51,1.91-1.86,2.24-.52,4.14-.52h3.16c1.95,0,3.49,.38,4.64,1.15,1.15,.77,1.72,2.25,1.72,4.45V46.34c0,1.92-.43,3.37-1.29,4.33s-2.01,1.44-3.46,1.44c-1.35,0-2.46-.48-3.33-1.44s-1.31-2.41-1.31-4.33V11.55l-8.08,32.11c-.53,2.09-.96,3.62-1.29,4.59-.33,.97-.95,1.86-1.84,2.66-.89,.8-2.13,1.2-3.71,1.2-1.19,0-2.2-.26-3.02-.77-.83-.52-1.47-1.17-1.93-1.98-.46-.8-.82-1.69-1.08-2.66-.26-.97-.53-1.99-.81-3.04Z"/><path d="M436.23,33.04c0,2.8-.44,5.37-1.31,7.73-.87,2.36-2.13,4.39-3.78,6.08-1.65,1.7-3.62,3-5.91,3.9-2.29,.91-4.87,1.36-7.73,1.36s-5.4-.46-7.67-1.38c-2.27-.92-4.23-2.23-5.9-3.94-1.66-1.71-2.92-3.72-3.78-6.05-.86-2.33-1.29-4.9-1.29-7.72s.44-5.44,1.31-7.8c.87-2.36,2.12-4.38,3.75-6.05,1.63-1.67,3.6-2.96,5.91-3.87,2.31-.9,4.87-1.36,7.67-1.36s5.42,.46,7.73,1.38c2.31,.92,4.3,2.22,5.95,3.92,1.65,1.7,2.9,3.71,3.76,6.05s1.29,4.92,1.29,7.73Zm-9.42,0c0-3.83-.84-6.81-2.53-8.94-1.68-2.13-3.95-3.2-6.79-3.2-1.83,0-3.45,.48-4.85,1.43-1.4,.95-2.48,2.35-3.23,4.21-.76,1.86-1.13,4.02-1.13,6.5s.37,4.6,1.12,6.43c.74,1.83,1.81,3.24,3.2,4.21,1.39,.97,3.02,1.46,4.9,1.46,2.84,0,5.1-1.07,6.79-3.21,1.68-2.14,2.53-5.1,2.53-8.89Z"/><path d="M452.14,19.15v1.13c1.65-2.18,3.46-3.78,5.41-4.8,1.96-1.02,4.21-1.53,6.75-1.53s4.69,.54,6.63,1.62c1.95,1.08,3.4,2.6,4.37,4.57,.62,1.15,1.02,2.38,1.2,3.71,.18,1.33,.27,3.02,.27,5.09v17.46c0,1.88-.43,3.3-1.29,4.26s-1.98,1.44-3.35,1.44-2.53-.49-3.4-1.48c-.87-.99-1.31-2.39-1.31-4.23v-15.64c0-3.09-.43-5.46-1.29-7.1-.86-1.64-2.57-2.46-5.14-2.46-1.67,0-3.2,.5-4.57,1.5-1.38,1-2.38,2.37-3.02,4.11-.46,1.4-.69,4.01-.69,7.84v11.76c0,1.9-.44,3.33-1.32,4.28-.88,.95-2.02,1.43-3.42,1.43s-2.46-.49-3.33-1.48c-.87-.99-1.31-2.39-1.31-4.23V19.29c0-1.79,.39-3.12,1.17-4,.78-.88,1.84-1.32,3.2-1.32,.83,0,1.57,.2,2.23,.58,.66,.39,1.2,.97,1.6,1.75,.4,.78,.6,1.73,.6,2.85Z"/><path d="M490.89,9.59c-1.31,0-2.42-.4-3.35-1.2-.93-.8-1.39-1.94-1.39-3.4,0-1.33,.48-2.42,1.43-3.28,.95-.86,2.06-1.29,3.32-1.29s2.29,.39,3.23,1.17c.94,.78,1.41,1.91,1.41,3.4s-.46,2.57-1.38,3.39c-.92,.81-2.01,1.22-3.27,1.22Zm4.64,9.69v27.12c0,1.88-.45,3.3-1.34,4.26-.89,.96-2.03,1.44-3.4,1.44s-2.49-.49-3.35-1.48c-.86-.99-1.29-2.39-1.29-4.23V19.56c0-1.86,.43-3.25,1.29-4.19,.86-.94,1.98-1.41,3.35-1.41s2.51,.47,3.4,1.41c.89,.94,1.34,2.25,1.34,3.92Z"/><path d="M530.93,75.46v-28.91c-1.81,1.81-3.7,3.19-5.65,4.14s-4.13,1.43-6.51,1.43c-2.91,0-5.56-.77-7.96-2.3-2.4-1.54-4.27-3.74-5.64-6.62-1.36-2.88-2.05-6.26-2.05-10.16s.69-7.41,2.06-10.26c1.38-2.85,3.28-5.02,5.72-6.51,2.44-1.49,5.15-2.23,8.13-2.23,2.52,0,4.78,.52,6.77,1.56,1.99,1.04,3.7,2.63,5.12,4.76v-1.13c0-1.72,.41-3.03,1.24-3.92,.83-.89,1.89-1.34,3.2-1.34s2.37,.44,3.2,1.32c.83,.88,1.24,2.19,1.24,3.94v56.24c0,4.17-1.48,6.26-4.43,6.26-1.83,0-3.03-.56-3.59-1.68-.56-1.12-.84-2.65-.84-4.57Zm-18.39-42.49c0,2.52,.41,4.69,1.22,6.51,.81,1.82,1.88,3.17,3.21,4.06,1.33,.88,2.76,1.32,4.3,1.32,1.67,0,3.21-.44,4.61-1.32,1.4-.88,2.52-2.23,3.37-4.04,.85-1.81,1.27-4.04,1.27-6.7,0-1.88-.25-3.57-.74-5.09-.49-1.51-1.16-2.77-2.01-3.76-.85-1-1.82-1.74-2.92-2.23-1.1-.49-2.27-.74-3.51-.74-2.52,0-4.62,1.04-6.29,3.13s-2.51,5.04-2.51,8.87Z"/><path d="M573.59,46.82v-1.2c-1.12,1.42-2.3,2.61-3.54,3.58-1.24,.96-2.59,1.68-4.06,2.15-1.47,.47-3.14,.7-5.02,.7-2.27,0-4.3-.47-6.1-1.41-1.8-.94-3.19-2.23-4.18-3.88-1.17-1.99-1.75-4.86-1.75-8.59V19.56c0-1.88,.42-3.28,1.27-4.21,.85-.93,1.97-1.39,3.37-1.39s2.57,.47,3.44,1.41c.87,.94,1.31,2.34,1.31,4.19v15.02c0,2.18,.18,4,.55,5.48,.37,1.48,1.03,2.64,1.98,3.47,.95,.84,2.24,1.25,3.87,1.25s3.07-.47,4.47-1.41c1.4-.94,2.42-2.17,3.06-3.68,.53-1.33,.79-4.24,.79-8.73v-11.41c0-1.86,.44-3.25,1.31-4.19,.87-.94,2.01-1.41,3.4-1.41s2.52,.46,3.37,1.39c.85,.93,1.27,2.33,1.27,4.21v27.19c0,1.79-.41,3.13-1.22,4.02-.81,.89-1.86,1.34-3.15,1.34s-2.34-.46-3.18-1.39c-.84-.93-1.25-2.23-1.25-3.9Z"/><path d="M617.94,35.34h-18.36c.02,2.13,.45,4.01,1.29,5.64,.84,1.63,1.95,2.85,3.33,3.68,1.39,.83,2.92,1.24,4.59,1.24,1.12,0,2.15-.13,3.08-.4,.93-.26,1.83-.68,2.7-1.24,.87-.56,1.67-1.16,2.41-1.8,.73-.64,1.68-1.51,2.85-2.61,.48-.41,1.17-.62,2.06-.62,.96,0,1.74,.26,2.34,.79,.6,.53,.89,1.27,.89,2.23,0,.85-.33,1.84-1,2.97-.67,1.13-1.67,2.22-3.01,3.27-1.34,1.04-3.03,1.91-5.05,2.6-2.03,.69-4.36,1.03-7,1.03-6.03,0-10.71-1.72-14.06-5.16-3.35-3.44-5.02-8.1-5.02-13.99,0-2.77,.41-5.35,1.24-7.72,.82-2.37,2.03-4.41,3.61-6.1,1.58-1.7,3.53-3,5.84-3.9,2.31-.9,4.88-1.36,7.7-1.36,3.67,0,6.81,.77,9.44,2.32,2.62,1.55,4.59,3.55,5.9,6s1.96,4.95,1.96,7.49c0,2.36-.68,3.89-2.03,4.59-1.35,.7-3.25,1.05-5.71,1.05Zm-18.36-5.33h17.02c-.23-3.21-1.09-5.61-2.6-7.2-1.5-1.59-3.48-2.39-5.93-2.39s-4.26,.81-5.76,2.42-2.41,4-2.73,7.17Z"/><path d="M665.14,6.12l19.63,29.7V5.84c0-1.95,.42-3.41,1.25-4.38,.84-.97,1.96-1.46,3.39-1.46s2.62,.49,3.47,1.46c.85,.97,1.27,2.44,1.27,4.38V45.48c0,4.42-1.83,6.63-5.5,6.63-.92,0-1.74-.13-2.48-.4-.73-.26-1.42-.68-2.06-1.25s-1.24-1.24-1.79-2.01c-.55-.77-1.1-1.55-1.65-2.35l-19.15-29.36v29.53c0,1.92-.45,3.38-1.34,4.37-.89,.98-2.04,1.48-3.44,1.48s-2.6-.5-3.47-1.5c-.87-1-1.31-2.45-1.31-4.35V7.39c0-1.65,.18-2.94,.55-3.88,.44-1.03,1.16-1.87,2.17-2.53,1.01-.65,2.1-.98,3.27-.98,.92,0,1.7,.15,2.35,.45,.65,.3,1.23,.7,1.72,1.2,.49,.5,1,1.16,1.51,1.96,.52,.8,1.05,1.64,1.6,2.51Z"/><path d="M709.41,9.59c-1.31,0-2.42-.4-3.35-1.2-.93-.8-1.39-1.94-1.39-3.4,0-1.33,.48-2.42,1.43-3.28,.95-.86,2.06-1.29,3.32-1.29s2.29,.39,3.23,1.17c.94,.78,1.41,1.91,1.41,3.4s-.46,2.57-1.38,3.39c-.92,.81-2.01,1.22-3.27,1.22Zm4.64,9.69v27.12c0,1.88-.45,3.3-1.34,4.26-.89,.96-2.03,1.44-3.4,1.44s-2.49-.49-3.35-1.48c-.86-.99-1.29-2.39-1.29-4.23V19.56c0-1.86,.43-3.25,1.29-4.19,.86-.94,1.98-1.41,3.35-1.41s2.51,.47,3.4,1.41c.89,.94,1.34,2.25,1.34,3.92Z"/><path d="M753.96,39.84c0,2.59-.63,4.81-1.89,6.65-1.26,1.85-3.12,3.24-5.59,4.19-2.46,.95-5.46,1.43-8.99,1.43s-6.26-.52-8.66-1.55-4.18-2.32-5.33-3.87c-1.15-1.55-1.72-3.1-1.72-4.66,0-1.03,.37-1.91,1.1-2.65s1.66-1.1,2.78-1.1c.99,0,1.74,.24,2.27,.72,.53,.48,1.03,1.16,1.51,2.03,.96,1.67,2.11,2.92,3.46,3.75,1.34,.82,3.17,1.24,5.48,1.24,1.88,0,3.42-.42,4.62-1.25,1.2-.84,1.8-1.79,1.8-2.87,0-1.65-.62-2.85-1.87-3.61-1.25-.76-3.31-1.48-6.17-2.17-3.23-.8-5.86-1.64-7.89-2.53-2.03-.88-3.65-2.05-4.86-3.49-1.21-1.44-1.82-3.22-1.82-5.33,0-1.88,.56-3.66,1.68-5.33,1.12-1.67,2.78-3.01,4.97-4,2.19-1,4.83-1.5,7.92-1.5,2.43,0,4.61,.25,6.55,.76,1.94,.5,3.55,1.18,4.85,2.03,1.29,.85,2.28,1.79,2.96,2.82s1.01,2.04,1.01,3.02c0,1.08-.36,1.96-1.08,2.65-.72,.69-1.75,1.03-3.08,1.03-.96,0-1.78-.27-2.46-.83-.68-.55-1.45-1.38-2.32-2.47-.71-.92-1.55-1.65-2.51-2.2-.96-.55-2.27-.83-3.92-.83s-3.11,.36-4.23,1.08c-1.12,.72-1.68,1.62-1.68,2.7,0,.99,.41,1.79,1.24,2.42,.83,.63,1.94,1.15,3.33,1.56,1.4,.41,3.32,.92,5.78,1.51,2.91,.71,5.29,1.56,7.13,2.54,1.84,.99,3.24,2.15,4.19,3.49,.95,1.34,1.43,2.87,1.43,4.59Z"/><path d="M792.12,39.84c0,2.59-.63,4.81-1.89,6.65-1.26,1.85-3.12,3.24-5.59,4.19-2.46,.95-5.46,1.43-8.99,1.43s-6.26-.52-8.66-1.55-4.18-2.32-5.33-3.87c-1.15-1.55-1.72-3.1-1.72-4.66,0-1.03,.37-1.91,1.1-2.65s1.66-1.1,2.78-1.1c.99,0,1.74,.24,2.27,.72,.53,.48,1.03,1.16,1.51,2.03,.96,1.67,2.11,2.92,3.46,3.75,1.34,.82,3.17,1.24,5.48,1.24,1.88,0,3.42-.42,4.62-1.25,1.2-.84,1.8-1.79,1.8-2.87,0-1.65-.62-2.85-1.87-3.61-1.25-.76-3.31-1.48-6.17-2.17-3.23-.8-5.86-1.64-7.89-2.53-2.03-.88-3.65-2.05-4.86-3.49-1.21-1.44-1.82-3.22-1.82-5.33,0-1.88,.56-3.66,1.68-5.33,1.12-1.67,2.78-3.01,4.97-4,2.19-1,4.83-1.5,7.92-1.5,2.43,0,4.61,.25,6.55,.76,1.94,.5,3.55,1.18,4.85,2.03,1.29,.85,2.28,1.79,2.96,2.82s1.01,2.04,1.01,3.02c0,1.08-.36,1.96-1.08,2.65-.72,.69-1.75,1.03-3.08,1.03-.96,0-1.78-.27-2.46-.83-.68-.55-1.45-1.38-2.32-2.47-.71-.92-1.55-1.65-2.51-2.2-.96-.55-2.27-.83-3.92-.83s-3.11,.36-4.23,1.08c-1.12,.72-1.68,1.62-1.68,2.7,0,.99,.41,1.79,1.24,2.42,.83,.63,1.94,1.15,3.33,1.56,1.4,.41,3.32,.92,5.78,1.51,2.91,.71,5.29,1.56,7.13,2.54,1.84,.99,3.24,2.15,4.19,3.49,.95,1.34,1.43,2.87,1.43,4.59Z"/><path d="M826.26,35.34h-18.36c.02,2.13,.45,4.01,1.29,5.64,.84,1.63,1.95,2.85,3.33,3.68,1.39,.83,2.92,1.24,4.59,1.24,1.12,0,2.15-.13,3.08-.4,.93-.26,1.83-.68,2.7-1.24,.87-.56,1.67-1.16,2.41-1.8,.73-.64,1.68-1.51,2.85-2.61,.48-.41,1.17-.62,2.06-.62,.96,0,1.74,.26,2.34,.79,.6,.53,.89,1.27,.89,2.23,0,.85-.33,1.84-1,2.97-.67,1.13-1.67,2.22-3.01,3.27-1.34,1.04-3.03,1.91-5.05,2.6-2.03,.69-4.36,1.03-7,1.03-6.03,0-10.71-1.72-14.06-5.16-3.35-3.44-5.02-8.1-5.02-13.99,0-2.77,.41-5.35,1.24-7.72,.82-2.37,2.03-4.41,3.61-6.1,1.58-1.7,3.53-3,5.84-3.9,2.31-.9,4.88-1.36,7.7-1.36,3.67,0,6.81,.77,9.44,2.32,2.62,1.55,4.59,3.55,5.9,6s1.96,4.95,1.96,7.49c0,2.36-.68,3.89-2.03,4.59-1.35,.7-3.25,1.05-5.71,1.05Zm-18.36-5.33h17.02c-.23-3.21-1.09-5.61-2.6-7.2-1.5-1.59-3.48-2.39-5.93-2.39s-4.26,.81-5.76,2.42-2.41,4-2.73,7.17Z"/><path d="M850.42,19.15v1.13c1.65-2.18,3.46-3.78,5.41-4.8,1.96-1.02,4.21-1.53,6.75-1.53s4.69,.54,6.63,1.62c1.95,1.08,3.4,2.6,4.37,4.57,.62,1.15,1.02,2.38,1.2,3.71,.18,1.33,.27,3.02,.27,5.09v17.46c0,1.88-.43,3.3-1.29,4.26s-1.98,1.44-3.35,1.44-2.53-.49-3.4-1.48c-.87-.99-1.31-2.39-1.31-4.23v-15.64c0-3.09-.43-5.46-1.29-7.1-.86-1.64-2.57-2.46-5.14-2.46-1.67,0-3.2,.5-4.57,1.5-1.38,1-2.38,2.37-3.02,4.11-.46,1.4-.69,4.01-.69,7.84v11.76c0,1.9-.44,3.33-1.32,4.28-.88,.95-2.02,1.43-3.42,1.43s-2.46-.49-3.33-1.48c-.87-.99-1.31-2.39-1.31-4.23V19.29c0-1.79,.39-3.12,1.17-4,.78-.88,1.84-1.32,3.2-1.32,.83,0,1.57,.2,2.23,.58,.66,.39,1.2,.97,1.6,1.75,.4,.78,.6,1.73,.6,2.85Z"/></g><path class="e" d="M48.58,19.42c-1.22-1.32-2.95-2.36-4.72-2.73-1.48-.32-3.11-.12-4.36,.73-1.23,.84-2,2.25-2.28,3.72-.89,4.71,2.36,9.85,4.67,13.72,1.86,3.13,4,6.09,6.41,8.81,1.83,2.07,3.81,4.37,6.64,5,6.78,1.51,11.72-6.27,14.78-11.04,2.24-3.48,4.5-7.02,5.7-10.97,.53-1.73,.84-3.57,.47-5.34-.66-3.12-3.51-4.96-6.63-4.29-1.76,.38-3.5,1.41-4.72,2.73"/><path class="d" d="M536.78,78.65c.2-2.49,.09-5,.34-7.49,.09-.87,.22-1.8,.8-2.46,.62-.69,1.62-.91,2.55-.83s1.8,.42,2.69,.69c4.09,1.23,8.46,.9,12.72,.79,2.78-.07,5.65-.06,8.24-1.09,2.07-.82,3.83-2.25,5.67-3.5,5.64-3.83,12.58-6.22,19.42-6.33,.46,0,.92,0,1.39,.01,4.55,.15,9.27,1.34,13.22,3.65,4.25,2.5,6.39,6.22,6.16,11.2-.15,3.16-1.09,6.29-2.81,8.94s-4.25,4.79-7.2,5.94c-.52,.2-1.08,.38-1.63,.25-.79-.18-1.3-.93-1.7-1.64-3.57-6.16-5.57-13.22-5.87-20.33-.06-1.41,.08-3.07,1.26-4.03,1.36-1.1,3.67-1.11,5.33-1.04,2.08,.08,4.18,.44,6.06,1.33,6.59,3.09,8.33,9.19,11.95,14.81,3.01,4.68,7.52,8.42,12.73,10.42,3.05,1.17,6.37,1.2,9.63,1.46,3.59,.29,7.19,.49,10.79,.49,5.84,0,11.67-.52,17.48-1.12,4.92-.51,9.83-1.09,14.73-1.78,2.5-.36,5.01-.73,7.5-1.17,2.31-.41,4.49-1.25,6.86-1.47,3.88-.37,7.83-.25,11.63,.68,3.11,.76,6.07,2.05,8.84,3.63,2.31,1.32,4.56,3.88,7.22,4.46,3.23,.7,7.67-.77,10.84-1.4,8.16-1.64,16.52-4.33,23.89-8.57,3.19-1.84,6.31-3.82,9.25-6.04,4.39-3.33,7.87-7.34,10.67-12.09"/><path d="M575.61,76.61c-.49,0-.92-.1-1.3-.3-.38-.2-.7-.47-.96-.8-.27-.33-.47-.71-.61-1.13-.14-.43-.21-.86-.21-1.31,0-.63,.1-1.18,.31-1.67,.21-.48,.48-.89,.82-1.22,.34-.33,.71-.57,1.11-.73,.4-.16,.8-.24,1.19-.24,.47,0,.9,.09,1.28,.26,.38,.17,.7,.42,.97,.72,.27,.31,.48,.66,.63,1.06s.22,.83,.22,1.29c0,.49-.08,.97-.25,1.46-.17,.48-.4,.92-.7,1.31-.3,.39-.66,.71-1.09,.94-.43,.24-.9,.36-1.41,.36Z"/></g></g></g></svg>